<?xml version="1.0" encoding="utf-8"?>
<!-- Generator: Adobe Illustrator 23.0.1, SVG Export Plug-In . SVG Version: 6.00 Build 0)  -->
<svg version="1.2" baseProfile="tiny" id="Layer_1" xmlns="http://www.w3.org/2000/svg" xmlns:xlink="http://www.w3.org/1999/xlink"
	 viewBox="0 0 48 48" xml:space="preserve">
<rect fill="#231F20" width="48" height="48"/>
<g>
	<g>
		<path id="SVGID_1_" fill="#FFFFFF" d="M17,29.1c-0.8-0.9-1.2-2.1-1.2-3.5c0-1.4,0.4-2.5,1.2-3.5c0.8-0.9,1.8-1.4,2.9-1.4
			c1.1,0,2.1,0.5,2.9,1.4c0.8,0.9,1.2,2.1,1.2,3.5c0,1.4-0.4,2.5-1.2,3.5c-0.8,0.9-1.8,1.4-2.9,1.4C18.8,30.5,17.8,30.1,17,29.1
			 M16.2,21.4c-1,1.2-1.5,2.6-1.5,4.3c0,1.7,0.5,3.2,1.5,4.3c1,1.1,2.3,1.7,3.8,1.7s2.8-0.6,3.8-1.7c1-1.2,1.5-2.6,1.5-4.3
			s-0.5-3.2-1.5-4.3s-2.3-1.7-3.8-1.7C18.5,19.6,17.2,20.2,16.2,21.4"/>
	</g>
	<path fill="none" d="M17,29.1c-0.8-0.9-1.2-2.1-1.2-3.5c0-1.4,0.4-2.5,1.2-3.5c0.8-0.9,1.8-1.4,2.9-1.4c1.1,0,2.1,0.5,2.9,1.4
		c0.8,0.9,1.2,2.1,1.2,3.5c0,1.4-0.4,2.5-1.2,3.5c-0.8,0.9-1.8,1.4-2.9,1.4C18.8,30.5,17.8,30.1,17,29.1 M16.2,21.4
		c-1,1.2-1.5,2.6-1.5,4.3c0,1.7,0.5,3.2,1.5,4.3c1,1.1,2.3,1.7,3.8,1.7s2.8-0.6,3.8-1.7c1-1.2,1.5-2.6,1.5-4.3s-0.5-3.2-1.5-4.3
		s-2.3-1.7-3.8-1.7C18.5,19.6,17.2,20.2,16.2,21.4"/>
</g>
<g>
	<g>
		<path id="SVGID_3_" fill="#FFFFFF" d="M38.7,15.6l-1,1.1v2.8h-2.5l-1.2,1h3.7v8.6c0,0.8,0.3,1.4,0.9,1.9s1.4,0.7,2.3,0.7
			c0.9,0,1.9-0.2,2.8-0.6v-1.2c-1,0.4-1.8,0.6-2.5,0.6c-0.9,0-1.5-0.2-1.7-0.5c-0.2-0.4-0.3-1.1-0.3-2.3v-7.1H43v-1h-3.8v-3.9
			L38.7,15.6L38.7,15.6z"/>
	</g>
	<path fill="none" d="M38.7,15.6l-1,1.1v2.8h-2.5l-1.2,1h3.7v8.6c0,0.8,0.3,1.4,0.9,1.9s1.4,0.7,2.3,0.7c0.9,0,1.9-0.2,2.8-0.6v-1.2
		c-1,0.4-1.8,0.6-2.5,0.6c-0.9,0-1.5-0.2-1.7-0.5c-0.2-0.4-0.3-1.1-0.3-2.3v-7.1H43v-1h-3.8v-3.9L38.7,15.6L38.7,15.6z"/>
</g>
<path fill="#EC1C24" d="M37,31.7h-3.9l1.1-2.1h-7.5l1.1,2.1H24l4.7-12h3.6L37,31.7z M32.4,27.9l-1.9-5.2l-2.3,6.6L32.4,27.9z"/>
<g>
	<path id="SVGID_5_" fill="#FFFFFF" d="M5.6,30.1l0-7.5C6.8,21,8,20.6,9.3,20.6c1.4,0,2.2,0.6,2.8,1.4c0.4,0.4,1.2,1.7,1.1,3.3
		c0,1.5-0.6,3.1-1.3,3.9c-0.9,1-2.3,1.4-3.7,1.4C7.3,30.5,6.5,30.5,5.6,30.1 M4.5,15.6v15.3c1.3,0.6,2.6,0.8,3.8,0.8
		c1.8,0,3.3-0.5,4.4-1.7c1.1-1.2,1.6-2.9,1.6-4.9c0-1.7-0.6-3-1.5-4.1c-0.9-1-2.6-1.5-3.6-1.5c-1.1,0-2.4,0.4-3.6,1.7v-4.5l-0.7-1.1
		L4.5,15.6L4.5,15.6z"/>
</g>
<path fill="none" d="M5.6,30.1l0-7.5C6.8,21,8,20.6,9.3,20.6c1.4,0,2.2,0.6,2.8,1.4c0.4,0.4,1.2,1.7,1.1,3.3c0,1.5-0.6,3.1-1.3,3.9
	c-0.9,1-2.3,1.4-3.7,1.4C7.3,30.5,6.5,30.5,5.6,30.1 M4.5,15.6v15.3c1.3,0.6,2.6,0.8,3.8,0.8c1.8,0,3.3-0.5,4.4-1.7
	c1.1-1.2,1.6-2.9,1.6-4.9c0-1.7-0.6-3-1.5-4.1c-0.9-1-2.6-1.5-3.6-1.5c-1.1,0-2.4,0.4-3.6,1.7v-4.5l-0.7-1.1L4.5,15.6L4.5,15.6z"/>
</svg>
